{
  "asset": {
    "version": "2.0",
    "generator": "THREE.GLTFExporter"
  },
  "scenes": [
    {
      "nodes": [
        0
      ]
    }
  ],
  "scene": 0,
  "nodes": [
    {
      "children": [
        41
      ],
      "matrix": [
        0.01,
        0,
        0,
        0,
        0,
        0.01,
        0,
        0,
        0,
        0,
        0.01,
        0,
        0,
        0,
        0,
        1
      ]
    },
    {
      "matrix": [
        3.3306690738754686e-16,
        -6.695352868347752e-17,
        0.9999999999999999,
        0,
        -1.1102230246251565e-16,
        -1.0000000000000002,
        -1.224646799147353e-16,
        0,
        0.9999999999999993,
        5.5511151231257815e-17,
        -2.220446049250312e-16,
        0,
        -1.499999999999999,
        -5.114186886032955,
        -3.219646771412954e-15,
        1
      ],
      "name": "Ellipse",
      "mesh": 0
    },
    {
      "name": "Boolean 2",
      "mesh": 1
    },
    {
      "matrix": [
        1,
        0,
        0,
        0,
        0,
        1,
        0,
        0,
        0,
        0,
        1,
        0,
        -26.221063991111862,
        -14.871362591938407,
        15.074891728030785,
        1
      ],
      "name": "Eye 2",
      "children": [
        1,
        2
      ]
    },
    {
      "matrix": [
        3.3306690738754686e-16,
        -6.695352868347752e-17,
        0.9999999999999999,
        0,
        -1.1102230246251565e-16,
        -1.0000000000000002,
        -1.224646799147353e-16,
        0,
        0.9999999999999993,
        5.5511151231257815e-17,
        -2.220446049250312e-16,
        0,
        -1.499999999999999,
        -5.114186886032955,
        -3.219646771412954e-15,
        1
      ],
      "name": "Ellipse",
      "mesh": 2
    },
    {
      "name": "Boolean 2",
      "mesh": 3
    },
    {
      "matrix": [
        1,
        0,
        0,
        0,
        0,
        1,
        0,
        0,
        0,
        0,
        1,
        0,
        -26.221063991111862,
        -14.871362591938407,
        -14.71054276756789,
        1
      ],
      "name": "Eye",
      "children": [
        4,
        5
      ]
    },
    {
      "matrix": [
        -0.5527501812057214,
        6.769237401417062e-17,
        -6.769237401417062e-17,
        0,
        6.769237401417062e-17,
        0.5527501812057214,
        6.769237401417062e-17,
        0,
        6.769237401417062e-17,
        6.769237401417062e-17,
        -0.5527501812057214,
        0,
        2.2737367544323206e-13,
        2.842170943040401e-14,
        -4.973799150320701e-14,
        1
      ],
      "name": "Cylinder 3",
      "mesh": 4
    },
    {
      "matrix": [
        0.27637509060286053,
        1.9752637732713115e-16,
        0.47869569887060637,
        0,
        0.4786956988706065,
        1.010613254375659e-16,
        -0.2763750906028607,
        0,
        -6.724701592023291e-17,
        0.5527501812057214,
        -2.454703912161278e-16,
        0,
        -1.417186459644561e-13,
        13.922722767396891,
        -5.32907051820074e-15,
        0.9999999999999997
      ],
      "name": "Cylinder 6",
      "mesh": 5
    },
    {
      "matrix": [
        0.39085340143265834,
        -3.4398466332794233e-16,
        -0.39085340143265834,
        0,
        -0.39085340143265856,
        -1.3951098105529783e-16,
        -0.3908534014326586,
        0,
        1.0779512141595063e-16,
        0.5527501812057215,
        -5.216245813342716e-16,
        0,
        -2.8213756922099e-14,
        13.922722767397003,
        -3.452364631769661e-14,
        0.9999999999999998
      ],
      "name": "Cylinder 5",
      "mesh": 6
    },
    {
      "matrix": [
        -0.5339156755125687,
        -1.6779769605784872e-17,
        -0.14306227407991015,
        0,
        -0.1430622740799102,
        1.4290416730255596e-16,
        0.5339156755125686,
        0,
        3.0553941276262675e-17,
        0.5527501812057213,
        -9.205139670604787e-17,
        0,
        -2.8477220581635246e-14,
        1.0000000000000002,
        -6.994405055138483e-15,
        1
      ],
      "name": "Cylinder 4",
      "mesh": 7
    },
    {
      "matrix": [
        -0.5009617935126647,
        1.1854357587004825e-16,
        0.23360232075801857,
        0,
        0.23360232075801848,
        1.5825118762935117e-16,
        0.5009617935126648,
        0,
        2.950009072501651e-17,
        0.5527501812057214,
        -9.205139670604792e-17,
        0,
        2.5579538487363637e-13,
        1.0000000000000568,
        -4.973799150320703e-14,
        1.0000000000000002
      ],
      "name": "Cylinder 2",
      "mesh": 8
    },
    {
      "matrix": [
        1,
        0,
        0,
        0,
        0,
        1,
        0,
        0,
        0,
        0,
        1,
        0,
        -0.3249619067872942,
        21.44866404809244,
        0.5715648125956534,
        1
      ],
      "name": "Antenna",
      "children": [
        7,
        8,
        9,
        10,
        11
      ]
    },
    {
      "matrix": [
        0.9967484331396976,
        -0.08057642976427927,
        0,
        0,
        0.08057642976427927,
        0.9967484331396976,
        0,
        0,
        0,
        0,
        1,
        0,
        -2.1336113276472513,
        -8.85374981236532,
        0.10783290863037105,
        1
      ],
      "name": "Head",
      "mesh": 9
    },
    {
      "matrix": [
        1,
        0,
        0,
        0,
        0,
        1,
        0,
        0,
        0,
        0,
        1,
        0,
        -34.932994383171696,
        6.830490429354441,
        0.02580738067626953,
        1
      ],
      "name": "Head",
      "children": [
        3,
        6,
        12,
        13
      ]
    },
    {
      "matrix": [
        0.9437040788271971,
        0.3307908880318674,
        0,
        0,
        -0.3307908880318674,
        0.9437040788271971,
        0,
        0,
        0,
        0,
        1,
        0,
        -29.891243598176995,
        -3.6561593385520847,
        0,
        1
      ],
      "name": "Neck",
      "mesh": 10
    },
    {
      "matrix": [
        0.9999999999999997,
        0,
        0,
        0,
        0,
        2.2204460492503128e-16,
        0.9999999999999999,
        0,
        0,
        -0.9999999999999999,
        2.2204460492503128e-16,
        0,
        -1.4210854715202004e-14,
        2.1094237467877974e-14,
        -3.034499951095405,
        1
      ],
      "name": "Cylinder 3",
      "mesh": 11
    },
    {
      "matrix": [
        0.9999999999999997,
        0,
        0,
        0,
        0,
        2.2204460492503128e-16,
        0.9999999999999999,
        0,
        0,
        -0.9999999999999999,
        2.2204460492503128e-16,
        0,
        -1.4210854715202004e-14,
        1.4210854715202004e-14,
        4.5702324385117485,
        1
      ],
      "name": "Wheel",
      "mesh": 12
    },
    {
      "matrix": [
        1,
        0,
        0,
        0,
        0,
        1,
        0,
        0,
        0,
        0,
        1,
        0,
        4.973799150320701e-14,
        1.4210854715202004e-14,
        10.278573835520048,
        1
      ],
      "name": "Group 3",
      "children": [
        16,
        17
      ]
    },
    {
      "matrix": [
        1,
        0,
        0,
        0,
        0,
        1,
        0,
        0,
        0,
        0,
        1,
        0,
        32.27604845025348,
        -43.72263161350064,
        -19.437526974218084,
        1
      ],
      "name": "Group 4",
      "children": [
        18
      ]
    },
    {
      "matrix": [
        0.7955356025088259,
        0.6059068452665962,
        0,
        0,
        -0.6527745130433072,
        0.857071296674031,
        0,
        0,
        0,
        0,
        1,
        0,
        24.575380461014788,
        -33.09817987627808,
        -19.437526974218077,
        1
      ],
      "name": "Cylinder",
      "mesh": 13
    },
    {
      "matrix": [
        0.5527501812057214,
        0,
        0,
        0,
        0,
        0.5527501812057214,
        0,
        0,
        0,
        0,
        0.5527501812057214,
        0,
        29.897310713324234,
        0.10964750722419582,
        10.74409655719015,
        1
      ],
      "name": "Leg-back",
      "children": [
        19,
        20
      ]
    },
    {
      "matrix": [
        1,
        -1.4997597826618582e-32,
        -2.465190328815662e-32,
        0,
        2.4651903288156624e-32,
        2.220446049250313e-16,
        1,
        0,
        -3.430620874969465e-32,
        -1,
        2.220446049250313e-16,
        0,
        1.4210854715202004e-14,
        7.327471962526033e-15,
        -3.0344999510954125,
        1
      ],
      "name": "Cylinder 3",
      "mesh": 14
    },
    {
      "matrix": [
        1,
        -1.4997597826618582e-32,
        -2.465190328815662e-32,
        0,
        2.4651903288156624e-32,
        2.220446049250313e-16,
        1,
        0,
        -3.430620874969465e-32,
        -1,
        2.220446049250313e-16,
        0,
        1.4210854715202004e-14,
        7.105427357601002e-15,
        4.570232438511738,
        1
      ],
      "name": "Cylinder 2",
      "mesh": 15
    },
    {
      "matrix": [
        1,
        0,
        0,
        0,
        0,
        1,
        0,
        0,
        0,
        0,
        1,
        0,
        -2.842170943040401e-14,
        -33.15266556580249,
        2.239241393644008,
        1
      ],
      "name": "Wheel",
      "children": [
        22,
        23
      ]
    },
    {
      "matrix": [
        1,
        0,
        0,
        0,
        0,
        1,
        0,
        0,
        0,
        0,
        1,
        0,
        0,
        3.893788023448039,
        -6.508741344739406,
        1
      ],
      "name": "Cylinder",
      "mesh": 16
    },
    {
      "matrix": [
        -1,
        1.2246467991473532e-16,
        -1.2246467991473532e-16,
        0,
        1.2246467991473532e-16,
        1,
        1.2246467991473532e-16,
        0,
        1.2246467991473532e-16,
        1.2246467991473532e-16,
        -1,
        0,
        1.8091355444130528,
        0,
        -152.6290179860886,
        1
      ],
      "name": "Leg right",
      "children": [
        24,
        25
      ]
    },
    {
      "matrix": [
        1,
        0,
        0,
        0,
        0,
        1,
        0,
        0,
        0,
        0,
        1,
        0,
        -2.842170943040401e-14,
        37.04645358925052,
        -8.748348982091613,
        1
      ],
      "name": "Cylinder",
      "mesh": 17
    },
    {
      "matrix": [
        1,
        0,
        0,
        0,
        0,
        2.220446049250313e-16,
        1,
        0,
        0,
        -1,
        2.220446049250313e-16,
        0,
        -1.4210854715202004e-14,
        -4.440892098500626e-16,
        -3.034866194803569,
        1
      ],
      "name": "Wheel",
      "mesh": 18
    },
    {
      "matrix": [
        1,
        0,
        0,
        0,
        0,
        2.220446049250313e-16,
        1,
        0,
        0,
        -1,
        2.220446049250313e-16,
        0,
        -1.4210854715202004e-14,
        -2.220446049250313e-16,
        4.569866194803581,
        1
      ],
      "name": "Cylinder 2",
      "mesh": 19
    },
    {
      "matrix": [
        1,
        0,
        0,
        0,
        0,
        1,
        0,
        0,
        0,
        0,
        1,
        0,
        -1.4210854715202004e-14,
        0,
        -2.842170943040401e-14,
        1
      ],
      "name": "Wheel",
      "children": [
        28,
        29
      ]
    },
    {
      "matrix": [
        1,
        0,
        0,
        0,
        0,
        1,
        0,
        0,
        0,
        0,
        1,
        0,
        2.842170943040401e-14,
        -33.15266556580248,
        2.2396076373521936,
        1
      ],
      "name": "Leg-left",
      "children": [
        27,
        30
      ]
    },
    {
      "matrix": [
        0.5527501812057214,
        0,
        0,
        0,
        0,
        0.5527501812057214,
        0,
        0,
        0,
        0,
        0.5527501812057214,
        0,
        -47.7379023428065,
        -5.732903140979275,
        42.1828586745309,
        1
      ],
      "name": "Leg-front",
      "children": [
        26,
        31
      ]
    },
    {
      "matrix": [
        1,
        0,
        0,
        0,
        0,
        1,
        0,
        0,
        0,
        0,
        1,
        0,
        12.14987335202585,
        -54.496484879288744,
        -0.00020244127606616757,
        1
      ],
      "name": "Legs",
      "children": [
        21,
        32
      ]
    },
    {
      "matrix": [
        2.220446049250313e-16,
        0,
        1,
        0,
        0,
        1,
        0,
        0,
        -1,
        0,
        2.220446049250313e-16,
        0,
        -45.062341432655764,
        0,
        0,
        1
      ],
      "name": "Radio",
      "mesh": 20
    },
    {
      "matrix": [
        1,
        0,
        0,
        0,
        0,
        1,
        0,
        0,
        0,
        0,
        1,
        0,
        1.062341432655785,
        0,
        0,
        1
      ],
      "name": "Body-Main",
      "mesh": 21
    },
    {
      "matrix": [
        1,
        0,
        0,
        0,
        0,
        1,
        0,
        0,
        0,
        0,
        1,
        0,
        -0.8603909789682689,
        -27.84437317332997,
        0,
        1
      ],
      "name": "Body",
      "children": [
        34,
        35
      ]
    },
    {
      "matrix": [
        1,
        0,
        0,
        0,
        0,
        1,
        0,
        0,
        0,
        0,
        1,
        0,
        95.23940000827902,
        77.84367290319629,
        -5.508909249135627,
        1
      ],
      "name": "Robot-RX2",
      "children": [
        14,
        15,
        33,
        36
      ]
    },
    {
      "matrix": [
        0.34596279966260945,
        -0.28216316483283976,
        -0.8948148912826188,
        0,
        0.6320330563865774,
        0.7749414272283045,
        0,
        0,
        0.6934291289556928,
        -0.5655525906375765,
        0.44643735320745187,
        0,
        0,
        0,
        0,
        1
      ],
      "name": "Directional Light",
      "extensions": {
        "KHR_lights_punctual": {
          "light": 0
        }
      }
    },
    {
      "matrix": [
        0.6310932850806996,
        -1.3877787807814457e-17,
        0.7757069456476787,
        0,
        0.09858245407808777,
        0.9918915432930614,
        -0.08020390321954801,
        0,
        -0.7694171594616229,
        0.12708723910648506,
        0.6259760925005831,
        0,
        -117.48972053540433,
        29.341383426958544,
        111.13117245817756,
        1
      ],
      "camera": 0
    },
    {
      "matrix": [
        1,
        0,
        0,
        0,
        0,
        1,
        0,
        0,
        0,
        0,
        1,
        0,
        0,
        1,
        0,
        1
      ],
      "name": "Default Ambient Light"
    },
    {
      "name": "Scene 1",
      "children": [
        37,
        38,
        39,
        40
      ]
    }
  ],
  "bufferViews": [
    {
      "buffer": 0,
      "byteOffset": 0,
      "byteLength": 3072,
      "target": 34962,
      "byteStride": 12
    },
    {
      "buffer": 0,
      "byteOffset": 3072,
      "byteLength": 3072,
      "target": 34962,
      "byteStride": 12
    },
    {
      "buffer": 0,
      "byteOffset": 6144,
      "byteLength": 2048,
      "target": 34962,
      "byteStride": 8
    },
    {
      "buffer": 0,
      "byteOffset": 8192,
      "byteLength": 3024,
      "target": 34963
    },
    {
      "buffer": 0,
      "byteOffset": 11216,
      "byteLength": 28944,
      "target": 34962,
      "byteStride": 12
    },
    {
      "buffer": 0,
      "byteOffset": 40160,
      "byteLength": 28944,
      "target": 34962,
      "byteStride": 12
    },
    {
      "buffer": 0,
      "byteOffset": 69104,
      "byteLength": 3072,
      "target": 34962,
      "byteStride": 12
    },
    {
      "buffer": 0,
      "byteOffset": 72176,
      "byteLength": 3072,
      "target": 34962,
      "byteStride": 12
    },
    {
      "buffer": 0,
      "byteOffset": 75248,
      "byteLength": 2048,
      "target": 34962,
      "byteStride": 8
    },
    {
      "buffer": 0,
      "byteOffset": 77296,
      "byteLength": 3024,
      "target": 34963
    },
    {
      "buffer": 0,
      "byteOffset": 80320,
      "byteLength": 28944,
      "target": 34962,
      "byteStride": 12
    },
    {
      "buffer": 0,
      "byteOffset": 109264,
      "byteLength": 28944,
      "target": 34962,
      "byteStride": 12
    },
    {
      "buffer": 0,
      "byteOffset": 138208,
      "byteLength": 4656,
      "target": 34962,
      "byteStride": 12
    },
    {
      "buffer": 0,
      "byteOffset": 142864,
      "byteLength": 4656,
      "target": 34962,
      "byteStride": 12
    },
    {
      "buffer": 0,
      "byteOffset": 147520,
      "byteLength": 3104,
      "target": 34962,
      "byteStride": 8
    },
    {
      "buffer": 0,
      "byteOffset": 150624,
      "byteLength": 1536,
      "target": 34963
    },
    {
      "buffer": 0,
      "byteOffset": 152160,
      "byteLength": 4656,
      "target": 34962,
      "byteStride": 12
    },
    {
      "buffer": 0,
      "byteOffset": 156816,
      "byteLength": 4656,
      "target": 34962,
      "byteStride": 12
    },
    {
      "buffer": 0,
      "byteOffset": 161472,
      "byteLength": 3104,
      "target": 34962,
      "byteStride": 8
    },
    {
      "buffer": 0,
      "byteOffset": 164576,
      "byteLength": 1536,
      "target": 34963
    },
    {
      "buffer": 0,
      "byteOffset": 166112,
      "byteLength": 4656,
      "target": 34962,
      "byteStride": 12
    },
    {
      "buffer": 0,
      "byteOffset": 170768,
      "byteLength": 4656,
      "target": 34962,
      "byteStride": 12
    },
    {
      "buffer": 0,
      "byteOffset": 175424,
      "byteLength": 3104,
      "target": 34962,
      "byteStride": 8
    },
    {
      "buffer": 0,
      "byteOffset": 178528,
      "byteLength": 1536,
      "target": 34963
    },
    {
      "buffer": 0,
      "byteOffset": 180064,
      "byteLength": 4656,
      "target": 34962,
      "byteStride": 12
    },
    {
      "buffer": 0,
      "byteOffset": 184720,
      "byteLength": 4656,
      "target": 34962,
      "byteStride": 12
    },
    {
      "buffer": 0,
      "byteOffset": 189376,
      "byteLength": 3104,
      "target": 34962,
      "byteStride": 8
    },
    {
      "buffer": 0,
      "byteOffset": 192480,
      "byteLength": 1536,
      "target": 34963
    },
    {
      "buffer": 0,
      "byteOffset": 194016,
      "byteLength": 4656,
      "target": 34962,
      "byteStride": 12
    },
    {
      "buffer": 0,
      "byteOffset": 198672,
      "byteLength": 4656,
      "target": 34962,
      "byteStride": 12
    },
    {
      "buffer": 0,
      "byteOffset": 203328,
      "byteLength": 3104,
      "target": 34962,
      "byteStride": 8
    },
    {
      "buffer": 0,
      "byteOffset": 206432,
      "byteLength": 1536,
      "target": 34963
    },
    {
      "buffer": 0,
      "byteOffset": 207968,
      "byteLength": 288,
      "target": 34962,
      "byteStride": 12
    },
    {
      "buffer": 0,
      "byteOffset": 208256,
      "byteLength": 288,
      "target": 34962,
      "byteStride": 12
    },
    {
      "buffer": 0,
      "byteOffset": 208544,
      "byteLength": 144,
      "target": 34963
    },
    {
      "buffer": 0,
      "byteOffset": 208688,
      "byteLength": 4656,
      "target": 34962,
      "byteStride": 12
    },
    {
      "buffer": 0,
      "byteOffset": 213344,
      "byteLength": 4656,
      "target": 34962,
      "byteStride": 12
    },
    {
      "buffer": 0,
      "byteOffset": 218000,
      "byteLength": 3104,
      "target": 34962,
      "byteStride": 8
    },
    {
      "buffer": 0,
      "byteOffset": 221104,
      "byteLength": 1536,
      "target": 34963
    },
    {
      "buffer": 0,
      "byteOffset": 222640,
      "byteLength": 4656,
      "target": 34962,
      "byteStride": 12
    },
    {
      "buffer": 0,
      "byteOffset": 227296,
      "byteLength": 4656,
      "target": 34962,
      "byteStride": 12
    },
    {
      "buffer": 0,
      "byteOffset": 231952,
      "byteLength": 3104,
      "target": 34962,
      "byteStride": 8
    },
    {
      "buffer": 0,
      "byteOffset": 235056,
      "byteLength": 1536,
      "target": 34963
    },
    {
      "buffer": 0,
      "byteOffset": 236592,
      "byteLength": 4656,
      "target": 34962,
      "byteStride": 12
    },
    {
      "buffer": 0,
      "byteOffset": 241248,
      "byteLength": 4656,
      "target": 34962,
      "byteStride": 12
    },
    {
      "buffer": 0,
      "byteOffset": 245904,
      "byteLength": 3104,
      "target": 34962,
      "byteStride": 8
    },
    {
      "buffer": 0,
      "byteOffset": 249008,
      "byteLength": 1536,
      "target": 34963
    },
    {
      "buffer": 0,
      "byteOffset": 250544,
      "byteLength": 4656,
      "target": 34962,
      "byteStride": 12
    },
    {
      "buffer": 0,
      "byteOffset": 255200,
      "byteLength": 4656,
      "target": 34962,
      "byteStride": 12
    },
    {
      "buffer": 0,
      "byteOffset": 259856,
      "byteLength": 3104,
      "target": 34962,
      "byteStride": 8
    },
    {
      "buffer": 0,
      "byteOffset": 262960,
      "byteLength": 1536,
      "target": 34963
    },
    {
      "buffer": 0,
      "byteOffset": 264496,
      "byteLength": 4656,
      "target": 34962,
      "byteStride": 12
    },
    {
      "buffer": 0,
      "byteOffset": 269152,
      "byteLength": 4656,
      "target": 34962,
      "byteStride": 12
    },
    {
      "buffer": 0,
      "byteOffset": 273808,
      "byteLength": 3104,
      "target": 34962,
      "byteStride": 8
    },
    {
      "buffer": 0,
      "byteOffset": 276912,
      "byteLength": 1536,
      "target": 34963
    },
    {
      "buffer": 0,
      "byteOffset": 278448,
      "byteLength": 4656,
      "target": 34962,
      "byteStride": 12
    },
    {
      "buffer": 0,
      "byteOffset": 283104,
      "byteLength": 4656,
      "target": 34962,
      "byteStride": 12
    },
    {
      "buffer": 0,
      "byteOffset": 287760,
      "byteLength": 3104,
      "target": 34962,
      "byteStride": 8
    },
    {
      "buffer": 0,
      "byteOffset": 290864,
      "byteLength": 1536,
      "target": 34963
    },
    {
      "buffer": 0,
      "byteOffset": 292400,
      "byteLength": 4656,
      "target": 34962,
      "byteStride": 12
    },
    {
      "buffer": 0,
      "byteOffset": 297056,
      "byteLength": 4656,
      "target": 34962,
      "byteStride": 12
    },
    {
      "buffer": 0,
      "byteOffset": 301712,
      "byteLength": 3104,
      "target": 34962,
      "byteStride": 8
    },
    {
      "buffer": 0,
      "byteOffset": 304816,
      "byteLength": 1536,
      "target": 34963
    },
    {
      "buffer": 0,
      "byteOffset": 306352,
      "byteLength": 4656,
      "target": 34962,
      "byteStride": 12
    },
    {
      "buffer": 0,
      "byteOffset": 311008,
      "byteLength": 4656,
      "target": 34962,
      "byteStride": 12
    },
    {
      "buffer": 0,
      "byteOffset": 315664,
      "byteLength": 3104,
      "target": 34962,
      "byteStride": 8
    },
    {
      "buffer": 0,
      "byteOffset": 318768,
      "byteLength": 1536,
      "target": 34963
    },
    {
      "buffer": 0,
      "byteOffset": 320304,
      "byteLength": 4656,
      "target": 34962,
      "byteStride": 12
    },
    {
      "buffer": 0,
      "byteOffset": 324960,
      "byteLength": 4656,
      "target": 34962,
      "byteStride": 12
    },
    {
      "buffer": 0,
      "byteOffset": 329616,
      "byteLength": 3104,
      "target": 34962,
      "byteStride": 8
    },
    {
      "buffer": 0,
      "byteOffset": 332720,
      "byteLength": 1536,
      "target": 34963
    },
    {
      "buffer": 0,
      "byteOffset": 334256,
      "byteLength": 4656,
      "target": 34962,
      "byteStride": 12
    },
    {
      "buffer": 0,
      "byteOffset": 338912,
      "byteLength": 4656,
      "target": 34962,
      "byteStride": 12
    },
    {
      "buffer": 0,
      "byteOffset": 343568,
      "byteLength": 3104,
      "target": 34962,
      "byteStride": 8
    },
    {
      "buffer": 0,
      "byteOffset": 346672,
      "byteLength": 1536,
      "target": 34963
    },
    {
      "buffer": 0,
      "byteOffset": 348208,
      "byteLength": 288,
      "target": 34962,
      "byteStride": 12
    },
    {
      "buffer": 0,
      "byteOffset": 348496,
      "byteLength": 288,
      "target": 34962,
      "byteStride": 12
    },
    {
      "buffer": 0,
      "byteOffset": 348784,
      "byteLength": 192,
      "target": 34962,
      "byteStride": 8
    },
    {
      "buffer": 0,
      "byteOffset": 348976,
      "byteLength": 72,
      "target": 34963
    },
    {
      "buffer": 0,
      "byteOffset": 349048,
      "byteLength": 432,
      "target": 34962,
      "byteStride": 12
    },
    {
      "buffer": 0,
      "byteOffset": 349480,
      "byteLength": 432,
      "target": 34962,
      "byteStride": 12
    },
    {
      "buffer": 0,
      "byteOffset": 349912,
      "byteLength": 240,
      "target": 34963
    }
  ],
  "buffers": [
    {
      "byteLength": 350152,
      "uri": "data:application/octet-stream;base64,"
    }
  ],
  "accessors": [
    {
      "bufferView": 0,
      "componentType": 5126,
      "count": 256,
      "max": [
        4.529933929443359,
        4.458503723144531,
        1.4549930095672607
      ],
      "min": [
        -4.529933929443359,
        -4.458503723144531,
        0
      ],
      "type": "VEC3"
    },
    {
      "bufferView": 1,
      "componentType": 5126,
      "count": 256,
      "max": [
        0.9986864924430847,
        0.9987672567367554,
        1
      ],
      "min": [
        -0.9986864924430847,
        -0.9987672567367554,
        -1
      ],
      "type": "VEC3"
    },
    {
      "bufferView": 2,
      "componentType": 5126,
      "count": 256,
      "max": [
        1,
        1
      ],
      "min": [
        0,
        0
      ],
      "type": "VEC2"
    },
    {
      "bufferView": 3,
      "componentType": 5125,
      "count": 756,
      "max": [
        255
      ],
      "min": [
        0
      ],
      "type": "SCALAR"
    },
    {
      "bufferView": 4,
      "componentType": 5126,
      "count": 2412,
      "max": [
        1.5,
        12.289307594299316,
        9.671788215637207
      ],
      "min": [
        -1.5,
        -12.289307594299316,
        -9.671788215637207
      ],
      "type": "VEC3"
    },
    {
      "bufferView": 5,
      "componentType": 5126,
      "count": 2412,
      "max": [
        1,
        1,
        1
      ],
      "min": [
        -1,
        -1,
        -1
      ],
      "type": "VEC3"
    },
    {
      "bufferView": 6,
      "componentType": 5126,
      "count": 256,
      "max": [
        4.529933929443359,
        4.458503723144531,
        1.4549930095672607
      ],
      "min": [
        -4.529933929443359,
        -4.458503723144531,
        0
      ],
      "type": "VEC3"
    },
    {
      "bufferView": 7,
      "componentType": 5126,
      "count": 256,
      "max": [
        0.9986864924430847,
        0.9987672567367554,
        1
      ],
      "min": [
        -0.9986864924430847,
        -0.9987672567367554,
        -1
      ],
      "type": "VEC3"
    },
    {
      "bufferView": 8,
      "componentType": 5126,
      "count": 256,
      "max": [
        1,
        1
      ],
      "min": [
        0,
        0
      ],
      "type": "VEC2"
    },
    {
      "bufferView": 9,
      "componentType": 5125,
      "count": 756,
      "max": [
        255
      ],
      "min": [
        0
      ],
      "type": "SCALAR"
    },
    {
      "bufferView": 10,
      "componentType": 5126,
      "count": 2412,
      "max": [
        1.5,
        12.289307594299316,
        9.671788215637207
      ],
      "min": [
        -1.5,
        -12.289307594299316,
        -9.671788215637207
      ],
      "type": "VEC3"
    },
    {
      "bufferView": 11,
      "componentType": 5126,
      "count": 2412,
      "max": [
        1,
        1,
        1
      ],
      "min": [
        -1,
        -1,
        -1
      ],
      "type": "VEC3"
    },
    {
      "bufferView": 12,
      "componentType": 5126,
      "count": 388,
      "max": [
        2.5,
        42,
        2.5
      ],
      "min": [
        -2.5,
        -42,
        -2.5
      ],
      "type": "VEC3"
    },
    {
      "bufferView": 13,
      "componentType": 5126,
      "count": 388,
      "max": [
        1,
        1,
        1
      ],
      "min": [
        -1,
        -1,
        -1
      ],
      "type": "VEC3"
    },
    {
      "bufferView": 14,
      "componentType": 5126,
      "count": 388,
      "max": [
        1,
        1
      ],
      "min": [
        0,
        0
      ],
      "type": "VEC2"
    },
    {
      "bufferView": 15,
      "componentType": 5123,
      "count": 768,
      "max": [
        387
      ],
      "min": [
        0
      ],
      "type": "SCALAR"
    },
    {
      "bufferView": 16,
      "componentType": 5126,
      "count": 388,
      "max": [
        2.5,
        42,
        2.5
      ],
      "min": [
        -2.5,
        -42,
        -2.5
      ],
      "type": "VEC3"
    },
    {
      "bufferView": 17,
      "componentType": 5126,
      "count": 388,
      "max": [
        1,
        1,
        1
      ],
      "min": [
        -1,
        -1,
        -1
      ],
      "type": "VEC3"
    },
    {
      "bufferView": 18,
      "componentType": 5126,
      "count": 388,
      "max": [
        1,
        1
      ],
      "min": [
        0,
        0
      ],
      "type": "VEC2"
    },
    {
      "bufferView": 19,
      "componentType": 5123,
      "count": 768,
      "max": [
        387
      ],
      "min": [
        0
      ],
      "type": "SCALAR"
    },
    {
      "bufferView": 20,
      "componentType": 5126,
      "count": 388,
      "max": [
        2.5,
        42,
        2.5
      ],
      "min": [
        -2.5,
        -42,
        -2.5
      ],
      "type": "VEC3"
    },
    {
      "bufferView": 21,
      "componentType": 5126,
      "count": 388,
      "max": [
        1,
        1,
        1
      ],
      "min": [
        -1,
        -1,
        -1
      ],
      "type": "VEC3"
    },
    {
      "bufferView": 22,
      "componentType": 5126,
      "count": 388,
      "max": [
        1,
        1
      ],
      "min": [
        0,
        0
      ],
      "type": "VEC2"
    },
    {
      "bufferView": 23,
      "componentType": 5123,
      "count": 768,
      "max": [
        387
      ],
      "min": [
        0
      ],
      "type": "SCALAR"
    },
    {
      "bufferView": 24,
      "componentType": 5126,
      "count": 388,
      "max": [
        2.5,
        42,
        2.5
      ],
      "min": [
        -2.5,
        -42,
        -2.5
      ],
      "type": "VEC3"
    },
    {
      "bufferView": 25,
      "componentType": 5126,
      "count": 388,
      "max": [
        1,
        1,
        1
      ],
      "min": [
        -1,
        -1,
        -1
      ],
      "type": "VEC3"
    },
    {
      "bufferView": 26,
      "componentType": 5126,
      "count": 388,
      "max": [
        1,
        1
      ],
      "min": [
        0,
        0
      ],
      "type": "VEC2"
    },
    {
      "bufferView": 27,
      "componentType": 5123,
      "count": 768,
      "max": [
        387
      ],
      "min": [
        0
      ],
      "type": "SCALAR"
    },
    {
      "bufferView": 28,
      "componentType": 5126,
      "count": 388,
      "max": [
        2.5,
        42,
        2.5
      ],
      "min": [
        -2.5,
        -42,
        -2.5
      ],
      "type": "VEC3"
    },
    {
      "bufferView": 29,
      "componentType": 5126,
      "count": 388,
      "max": [
        1,
        1,
        1
      ],
      "min": [
        -1,
        -1,
        -1
      ],
      "type": "VEC3"
    },
    {
      "bufferView": 30,
      "componentType": 5126,
      "count": 388,
      "max": [
        1,
        1
      ],
      "min": [
        0,
        0
      ],
      "type": "VEC2"
    },
    {
      "bufferView": 31,
      "componentType": 5123,
      "count": 768,
      "max": [
        387
      ],
      "min": [
        0
      ],
      "type": "SCALAR"
    },
    {
      "bufferView": 32,
      "componentType": 5126,
      "count": 24,
      "max": [
        31.836811065673828,
        15.481343269348145,
        29.892168045043945
      ],
      "min": [
        -26.110889434814453,
        -33.35357666015625,
        -30.107833862304688
      ],
      "type": "VEC3"
    },
    {
      "bufferView": 33,
      "componentType": 5126,
      "count": 24,
      "max": [
        0.9997009634971619,
        0.9999999403953552,
        0.9870860576629639
      ],
      "min": [
        -0.9941898584365845,
        -0.9666883945465088,
        -0.9867974519729614
      ],
      "type": "VEC3"
    },
    {
      "bufferView": 34,
      "componentType": 5125,
      "count": 36,
      "max": [
        23
      ],
      "min": [
        0
      ],
      "type": "SCALAR"
    },
    {
      "bufferView": 35,
      "componentType": 5126,
      "count": 388,
      "max": [
        5,
        22.835765838623047,
        6.029104232788086
      ],
      "min": [
        -5,
        -22.835765838623047,
        -6.029104232788086
      ],
      "type": "VEC3"
    },
    {
      "bufferView": 36,
      "componentType": 5126,
      "count": 388,
      "max": [
        1,
        1,
        1
      ],
      "min": [
        -1,
        -1,
        -1
      ],
      "type": "VEC3"
    },
    {
      "bufferView": 37,
      "componentType": 5126,
      "count": 388,
      "max": [
        1,
        1
      ],
      "min": [
        0,
        0
      ],
      "type": "VEC2"
    },
    {
      "bufferView": 38,
      "componentType": 5123,
      "count": 768,
      "max": [
        387
      ],
      "min": [
        0
      ],
      "type": "SCALAR"
    },
    {
      "bufferView": 39,
      "componentType": 5126,
      "count": 388,
      "max": [
        5,
        6.235000133514404,
        5
      ],
      "min": [
        -5,
        -6.235000133514404,
        -5
      ],
      "type": "VEC3"
    },
    {
      "bufferView": 40,
      "componentType": 5126,
      "count": 388,
      "max": [
        1,
        1,
        1
      ],
      "min": [
        -1,
        -1,
        -1
      ],
      "type": "VEC3"
    },
    {
      "bufferView": 41,
      "componentType": 5126,
      "count": 388,
      "max": [
        1,
        1
      ],
      "min": [
        0,
        0
      ],
      "type": "VEC2"
    },
    {
      "bufferView": 42,
      "componentType": 5123,
      "count": 768,
      "max": [
        387
      ],
      "min": [
        0
      ],
      "type": "SCALAR"
    },
    {
      "bufferView": 43,
      "componentType": 5126,
      "count": 388,
      "max": [
        14.239999771118164,
        4.699267387390137,
        12.741122245788574
      ],
      "min": [
        -14.239999771118164,
        -4.699267387390137,
        -12.741122245788574
      ],
      "type": "VEC3"
    },
    {
      "bufferView": 44,
      "componentType": 5126,
      "count": 388,
      "max": [
        1,
        1,
        1
      ],
      "min": [
        -1,
        -1,
        -1
      ],
      "type": "VEC3"
    },
    {
      "bufferView": 45,
      "componentType": 5126,
      "count": 388,
      "max": [
        1,
        1
      ],
      "min": [
        0,
        0
      ],
      "type": "VEC2"
    },
    {
      "bufferView": 46,
      "componentType": 5123,
      "count": 768,
      "max": [
        387
      ],
      "min": [
        0
      ],
      "type": "SCALAR"
    },
    {
      "bufferView": 47,
      "componentType": 5126,
      "count": 388,
      "max": [
        5,
        58.5,
        5
      ],
      "min": [
        -5,
        -58.5,
        -5
      ],
      "type": "VEC3"
    },
    {
      "bufferView": 48,
      "componentType": 5126,
      "count": 388,
      "max": [
        1,
        1,
        1
      ],
      "min": [
        -1,
        -1,
        -1
      ],
      "type": "VEC3"
    },
    {
      "bufferView": 49,
      "componentType": 5126,
      "count": 388,
      "max": [
        1,
        1
      ],
      "min": [
        0,
        0
      ],
      "type": "VEC2"
    },
    {
      "bufferView": 50,
      "componentType": 5123,
      "count": 768,
      "max": [
        387
      ],
      "min": [
        0
      ],
      "type": "SCALAR"
    },
    {
      "bufferView": 51,
      "componentType": 5126,
      "count": 388,
      "max": [
        5,
        6.235000133514404,
        5
      ],
      "min": [
        -5,
        -6.235000133514404,
        -5
      ],
      "type": "VEC3"
    },
    {
      "bufferView": 52,
      "componentType": 5126,
      "count": 388,
      "max": [
        1,
        1,
        1
      ],
      "min": [
        -1,
        -1,
        -1
      ],
      "type": "VEC3"
    },
    {
      "bufferView": 53,
      "componentType": 5126,
      "count": 388,
      "max": [
        1,
        1
      ],
      "min": [
        0,
        0
      ],
      "type": "VEC2"
    },
    {
      "bufferView": 54,
      "componentType": 5123,
      "count": 768,
      "max": [
        387
      ],
      "min": [
        0
      ],
      "type": "SCALAR"
    },
    {
      "bufferView": 55,
      "componentType": 5126,
      "count": 388,
      "max": [
        20,
        4.699267387390137,
        20
      ],
      "min": [
        -20,
        -4.699267387390137,
        -20
      ],
      "type": "VEC3"
    },
    {
      "bufferView": 56,
      "componentType": 5126,
      "count": 388,
      "max": [
        1,
        1,
        1
      ],
      "min": [
        -1,
        -1,
        -1
      ],
      "type": "VEC3"
    },
    {
      "bufferView": 57,
      "componentType": 5126,
      "count": 388,
      "max": [
        1,
        1
      ],
      "min": [
        0,
        0
      ],
      "type": "VEC2"
    },
    {
      "bufferView": 58,
      "componentType": 5123,
      "count": 768,
      "max": [
        387
      ],
      "min": [
        0
      ],
      "type": "SCALAR"
    },
    {
      "bufferView": 59,
      "componentType": 5126,
      "count": 388,
      "max": [
        5,
        42,
        5
      ],
      "min": [
        -5,
        -42,
        -5
      ],
      "type": "VEC3"
    },
    {
      "bufferView": 60,
      "componentType": 5126,
      "count": 388,
      "max": [
        1,
        1,
        1
      ],
      "min": [
        -1,
        -1,
        -1
      ],
      "type": "VEC3"
    },
    {
      "bufferView": 61,
      "componentType": 5126,
      "count": 388,
      "max": [
        1,
        1
      ],
      "min": [
        0,
        0
      ],
      "type": "VEC2"
    },
    {
      "bufferView": 62,
      "componentType": 5123,
      "count": 768,
      "max": [
        387
      ],
      "min": [
        0
      ],
      "type": "SCALAR"
    },
    {
      "bufferView": 63,
      "componentType": 5126,
      "count": 388,
      "max": [
        5,
        42,
        5
      ],
      "min": [
        -5,
        -42,
        -5
      ],
      "type": "VEC3"
    },
    {
      "bufferView": 64,
      "componentType": 5126,
      "count": 388,
      "max": [
        1,
        1,
        1
      ],
      "min": [
        -1,
        -1,
        -1
      ],
      "type": "VEC3"
    },
    {
      "bufferView": 65,
      "componentType": 5126,
      "count": 388,
      "max": [
        1,
        1
      ],
      "min": [
        0,
        0
      ],
      "type": "VEC2"
    },
    {
      "bufferView": 66,
      "componentType": 5123,
      "count": 768,
      "max": [
        387
      ],
      "min": [
        0
      ],
      "type": "SCALAR"
    },
    {
      "bufferView": 67,
      "componentType": 5126,
      "count": 388,
      "max": [
        5,
        6.235000133514404,
        5
      ],
      "min": [
        -5,
        -6.235000133514404,
        -5
      ],
      "type": "VEC3"
    },
    {
      "bufferView": 68,
      "componentType": 5126,
      "count": 388,
      "max": [
        1,
        1,
        1
      ],
      "min": [
        -1,
        -1,
        -1
      ],
      "type": "VEC3"
    },
    {
      "bufferView": 69,
      "componentType": 5126,
      "count": 388,
      "max": [
        1,
        1
      ],
      "min": [
        0,
        0
      ],
      "type": "VEC2"
    },
    {
      "bufferView": 70,
      "componentType": 5123,
      "count": 768,
      "max": [
        387
      ],
      "min": [
        0
      ],
      "type": "SCALAR"
    },
    {
      "bufferView": 71,
      "componentType": 5126,
      "count": 388,
      "max": [
        20,
        4.699999809265137,
        20
      ],
      "min": [
        -20,
        -4.699999809265137,
        -20
      ],
      "type": "VEC3"
    },
    {
      "bufferView": 72,
      "componentType": 5126,
      "count": 388,
      "max": [
        1,
        1,
        1
      ],
      "min": [
        -1,
        -1,
        -1
      ],
      "type": "VEC3"
    },
    {
      "bufferView": 73,
      "componentType": 5126,
      "count": 388,
      "max": [
        1,
        1
      ],
      "min": [
        0,
        0
      ],
      "type": "VEC2"
    },
    {
      "bufferView": 74,
      "componentType": 5123,
      "count": 768,
      "max": [
        387
      ],
      "min": [
        0
      ],
      "type": "SCALAR"
    },
    {
      "bufferView": 75,
      "componentType": 5126,
      "count": 24,
      "max": [
        21,
        5.5,
        6
      ],
      "min": [
        -21,
        -5.5,
        -6
      ],
      "type": "VEC3"
    },
    {
      "bufferView": 76,
      "componentType": 5126,
      "count": 24,
      "max": [
        1,
        1,
        1
      ],
      "min": [
        -1,
        -1,
        -1
      ],
      "type": "VEC3"
    },
    {
      "bufferView": 77,
      "componentType": 5126,
      "count": 24,
      "max": [
        1,
        1
      ],
      "min": [
        0,
        0
      ],
      "type": "VEC2"
    },
    {
      "bufferView": 78,
      "componentType": 5123,
      "count": 36,
      "max": [
        23
      ],
      "min": [
        0
      ],
      "type": "SCALAR"
    },
    {
      "bufferView": 79,
      "componentType": 5126,
      "count": 36,
      "max": [
        50,
        15,
        50
      ],
      "min": [
        -50,
        -15,
        -50
      ],
      "type": "VEC3"
    },
    {
      "bufferView": 80,
      "componentType": 5126,
      "count": 36,
      "max": [
        1,
        1,
        1
      ],
      "min": [
        -1,
        -1,
        -1
      ],
      "type": "VEC3"
    },
    {
      "bufferView": 81,
      "componentType": 5125,
      "count": 60,
      "max": [
        35
      ],
      "min": [
        0
      ],
      "type": "SCALAR"
    }
  ],
  "meshes": [
    {
      "primitives": [
        {
          "mode": 4,
          "attributes": {
            "POSITION": 0,
            "NORMAL": 1,
            "TEXCOORD_0": 2
          },
          "extras": {
            "shape": {
              "points": [
                -4.529934052399565,
                0,
                -4.529934052399565,
                -2.4623636510076086,
                -4.529934052399565,
                2.4623636510076086,
                0,
                0,
                4.4585037915664145,
                -2.5018134947399937,
                4.4585037915664145,
                2.5018134947399937,
                4.4585037915664145,
                0,
                4.529934052399565,
                0,
                4.529934052399565,
                2.4623636510076086,
                4.529934052399565,
                -2.4623636510076086,
                0,
                0,
                -4.4585037915664145,
                2.5018134947399937,
                -4.4585037915664145,
                -2.5018134947399937,
                -4.4585037915664145,
                0
              ],
              "shapeHoles": [],
              "isClosed": true,
              "roundness": 0
            },
            "parameters": {
              "width": 9.05986810479913,
              "depth": 1.45499304199742,
              "spikes": 64,
              "angle": 360,
              "innerRadius": 0,
              "extrudeBevelSize": 0,
              "extrudeBevelSegments": 1,
              "height": 8.917007583132829,
              "type": "EllipseGeometry"
            },
            "type": "EllipseGeometry"
          },
          "indices": 3
        }
      ]
    },
    {
      "primitives": [
        {
          "mode": 4,
          "attributes": {
            "POSITION": 4,
            "NORMAL": 5
          },
          "extras": {
            "parameters": {
              "width": 3,
              "height": 24.578615188598633,
              "depth": 19.343576431274414
            }
          }
        }
      ]
    },
    {
      "primitives": [
        {
          "mode": 4,
          "attributes": {
            "POSITION": 6,
            "NORMAL": 7,
            "TEXCOORD_0": 8
          },
          "extras": {
            "shape": {
              "points": [
                -4.529934052399565,
                0,
                -4.529934052399565,
                -2.4623636510076086,
                -4.529934052399565,
                2.4623636510076086,
                0,
                0,
                4.4585037915664145,
                -2.5018134947399937,
                4.4585037915664145,
                2.5018134947399937,
                4.4585037915664145,
                0,
                4.529934052399565,
                0,
                4.529934052399565,
                2.4623636510076086,
                4.529934052399565,
                -2.4623636510076086,
                0,
                0,
                -4.4585037915664145,
                2.5018134947399937,
                -4.4585037915664145,
                -2.5018134947399937,
                -4.4585037915664145,
                0
              ],
              "shapeHoles": [],
              "isClosed": true,
              "roundness": 0
            },
            "parameters": {
              "width": 9.05986810479913,
              "depth": 1.45499304199742,
              "spikes": 64,
              "angle": 360,
              "innerRadius": 0,
              "extrudeBevelSize": 0,
              "extrudeBevelSegments": 1,
              "height": 8.917007583132829,
              "type": "EllipseGeometry"
            },
            "type": "EllipseGeometry"
          },
          "indices": 9
        }
      ]
    },
    {
      "primitives": [
        {
          "mode": 4,
          "attributes": {
            "POSITION": 10,
            "NORMAL": 11
          },
          "extras": {
            "parameters": {
              "width": 3,
              "height": 24.578615188598633,
              "depth": 19.343576431274414
            }
          }
        }
      ]
    },
    {
      "primitives": [
        {
          "mode": 4,
          "attributes": {
            "POSITION": 12,
            "NORMAL": 13,
            "TEXCOORD_0": 14
          },
          "extras": {
            "parameters": {
              "width": 5,
              "radialSegments": 64,
              "heightSegments": 1,
              "openEnded": false,
              "thetaStart": 0,
              "thetaLength": 360,
              "cornerRadius": 0,
              "cornerSegments": 1,
              "hollow": 0,
              "depth": 5,
              "height": 84,
              "radiusTop": 2.5,
              "radiusBottom": 2.5,
              "type": "CylinderGeometry"
            },
            "type": "CylinderGeometry"
          },
          "indices": 15
        }
      ]
    },
    {
      "primitives": [
        {
          "mode": 4,
          "attributes": {
            "POSITION": 16,
            "NORMAL": 17,
            "TEXCOORD_0": 18
          },
          "extras": {
            "parameters": {
              "width": 5,
              "radialSegments": 64,
              "heightSegments": 1,
              "openEnded": false,
              "thetaStart": 0,
              "thetaLength": 360,
              "cornerRadius": 0,
              "cornerSegments": 1,
              "hollow": 0,
              "depth": 5,
              "height": 84,
              "radiusTop": 2.5,
              "radiusBottom": 2.5,
              "type": "CylinderGeometry"
            },
            "type": "CylinderGeometry"
          },
          "indices": 19
        }
      ]
    },
    {
      "primitives": [
        {
          "mode": 4,
          "attributes": {
            "POSITION": 20,
            "NORMAL": 21,
            "TEXCOORD_0": 22
          },
          "extras": {
            "parameters": {
              "width": 5,
              "radialSegments": 64,
              "heightSegments": 1,
              "openEnded": false,
              "thetaStart": 0,
              "thetaLength": 360,
              "cornerRadius": 0,
              "cornerSegments": 1,
              "hollow": 0,
              "depth": 5,
              "height": 84,
              "radiusTop": 2.5,
              "radiusBottom": 2.5,
              "type": "CylinderGeometry"
            },
            "type": "CylinderGeometry"
          },
          "indices": 23
        }
      ]
    },
    {
      "primitives": [
        {
          "mode": 4,
          "attributes": {
            "POSITION": 24,
            "NORMAL": 25,
            "TEXCOORD_0": 26
          },
          "extras": {
            "parameters": {
              "width": 5,
              "radialSegments": 64,
              "heightSegments": 1,
              "openEnded": false,
              "thetaStart": 0,
              "thetaLength": 360,
              "cornerRadius": 0,
              "cornerSegments": 1,
              "hollow": 0,
              "depth": 5,
              "height": 84,
              "radiusTop": 2.5,
              "radiusBottom": 2.5,
              "type": "CylinderGeometry"
            },
            "type": "CylinderGeometry"
          },
          "indices": 27
        }
      ]
    },
    {
      "primitives": [
        {
          "mode": 4,
          "attributes": {
            "POSITION": 28,
            "NORMAL": 29,
            "TEXCOORD_0": 30
          },
          "extras": {
            "parameters": {
              "width": 5,
              "radialSegments": 64,
              "heightSegments": 1,
              "openEnded": false,
              "thetaStart": 0,
              "thetaLength": 360,
              "cornerRadius": 0,
              "cornerSegments": 1,
              "hollow": 0,
              "depth": 5,
              "height": 84,
              "radiusTop": 2.5,
              "radiusBottom": 2.5,
              "type": "CylinderGeometry"
            },
            "type": "CylinderGeometry"
          },
          "indices": 31
        }
      ]
    },
    {
      "primitives": [
        {
          "mode": 4,
          "attributes": {
            "POSITION": 32,
            "NORMAL": 33
          },
          "extras": {
            "type": "SubdivGeometry",
            "parameters": {
              "width": 57.94770050048828,
              "height": 48.834919929504395,
              "depth": 60.00000190734863
            }
          },
          "indices": 34
        }
      ]
    },
    {
      "primitives": [
        {
          "mode": 4,
          "attributes": {
            "POSITION": 35,
            "NORMAL": 36,
            "TEXCOORD_0": 37
          },
          "extras": {
            "parameters": {
              "width": 10,
              "radialSegments": 64,
              "heightSegments": 1,
              "openEnded": false,
              "thetaStart": 0,
              "thetaLength": 360,
              "cornerRadius": 0,
              "cornerSegments": 8,
              "hollow": 0,
              "depth": 12.058208079521862,
              "height": 45.67152977804878,
              "radiusTop": 5,
              "radiusBottom": 5,
              "type": "CylinderGeometry"
            },
            "type": "CylinderGeometry"
          },
          "indices": 38
        }
      ]
    },
    {
      "primitives": [
        {
          "mode": 4,
          "attributes": {
            "POSITION": 39,
            "NORMAL": 40,
            "TEXCOORD_0": 41
          },
          "extras": {
            "parameters": {
              "width": 10,
              "radialSegments": 64,
              "heightSegments": 1,
              "openEnded": false,
              "thetaStart": 0,
              "thetaLength": 360,
              "cornerRadius": 0,
              "cornerSegments": 8,
              "hollow": 0,
              "depth": 10,
              "height": 12.47,
              "radiusTop": 5,
              "radiusBottom": 5,
              "type": "CylinderGeometry"
            },
            "type": "CylinderGeometry"
          },
          "indices": 42
        }
      ]
    },
    {
      "primitives": [
        {
          "mode": 4,
          "attributes": {
            "POSITION": 43,
            "NORMAL": 44,
            "TEXCOORD_0": 45
          },
          "extras": {
            "parameters": {
              "width": 28.48,
              "radialSegments": 64,
              "heightSegments": 1,
              "openEnded": false,
              "thetaStart": 0,
              "thetaLength": 360,
              "cornerRadius": 0,
              "cornerSegments": 8,
              "hollow": 0,
              "depth": 25.4822449152911,
              "height": 9.398535025167286,
              "radiusTop": 14.24,
              "radiusBottom": 14.24,
              "type": "CylinderGeometry"
            },
            "type": "CylinderGeometry"
          },
          "indices": 46
        }
      ]
    },
    {
      "primitives": [
        {
          "mode": 4,
          "attributes": {
            "POSITION": 47,
            "NORMAL": 48,
            "TEXCOORD_0": 49
          },
          "extras": {
            "parameters": {
              "width": 10,
              "radialSegments": 64,
              "heightSegments": 1,
              "openEnded": false,
              "thetaStart": 0,
              "thetaLength": 360,
              "cornerRadius": 0,
              "cornerSegments": 8,
              "hollow": 0,
              "depth": 10,
              "height": 117,
              "radiusTop": 5,
              "radiusBottom": 5,
              "type": "CylinderGeometry"
            },
            "type": "CylinderGeometry"
          },
          "indices": 50
        }
      ]
    },
    {
      "primitives": [
        {
          "mode": 4,
          "attributes": {
            "POSITION": 51,
            "NORMAL": 52,
            "TEXCOORD_0": 53
          },
          "extras": {
            "parameters": {
              "width": 10,
              "radialSegments": 64,
              "heightSegments": 1,
              "openEnded": false,
              "thetaStart": 0,
              "thetaLength": 360,
              "cornerRadius": 0,
              "cornerSegments": 8,
              "hollow": 0,
              "depth": 10,
              "height": 12.47,
              "radiusTop": 5,
              "radiusBottom": 5,
              "type": "CylinderGeometry"
            },
            "type": "CylinderGeometry"
          },
          "indices": 54
        }
      ]
    },
    {
      "primitives": [
        {
          "mode": 4,
          "attributes": {
            "POSITION": 55,
            "NORMAL": 56,
            "TEXCOORD_0": 57
          },
          "extras": {
            "parameters": {
              "width": 40,
              "radialSegments": 64,
              "heightSegments": 1,
              "openEnded": false,
              "thetaStart": 0,
              "thetaLength": 360,
              "cornerRadius": 0,
              "cornerSegments": 8,
              "hollow": 0,
              "depth": 40,
              "height": 9.398535025167286,
              "radiusTop": 20,
              "radiusBottom": 20,
              "type": "CylinderGeometry"
            },
            "type": "CylinderGeometry"
          },
          "indices": 58
        }
      ]
    },
    {
      "primitives": [
        {
          "mode": 4,
          "attributes": {
            "POSITION": 59,
            "NORMAL": 60,
            "TEXCOORD_0": 61
          },
          "extras": {
            "parameters": {
              "width": 10,
              "radialSegments": 64,
              "heightSegments": 1,
              "openEnded": false,
              "thetaStart": 0,
              "thetaLength": 360,
              "cornerRadius": 0,
              "cornerSegments": 8,
              "hollow": 0,
              "depth": 10,
              "height": 84,
              "radiusTop": 5,
              "radiusBottom": 5,
              "type": "CylinderGeometry"
            },
            "type": "CylinderGeometry"
          },
          "indices": 62
        }
      ]
    },
    {
      "primitives": [
        {
          "mode": 4,
          "attributes": {
            "POSITION": 63,
            "NORMAL": 64,
            "TEXCOORD_0": 65
          },
          "extras": {
            "parameters": {
              "width": 10,
              "radialSegments": 64,
              "heightSegments": 1,
              "openEnded": false,
              "thetaStart": 0,
              "thetaLength": 360,
              "cornerRadius": 0,
              "cornerSegments": 8,
              "hollow": 0,
              "depth": 10,
              "height": 84,
              "radiusTop": 5,
              "radiusBottom": 5,
              "type": "CylinderGeometry"
            },
            "type": "CylinderGeometry"
          },
          "indices": 66
        }
      ]
    },
    {
      "primitives": [
        {
          "mode": 4,
          "attributes": {
            "POSITION": 67,
            "NORMAL": 68,
            "TEXCOORD_0": 69
          },
          "extras": {
            "parameters": {
              "width": 10,
              "radialSegments": 64,
              "heightSegments": 1,
              "openEnded": false,
              "thetaStart": 0,
              "thetaLength": 360,
              "cornerRadius": 0,
              "cornerSegments": 8,
              "hollow": 0,
              "depth": 10,
              "height": 12.47,
              "radiusTop": 5,
              "radiusBottom": 5,
              "type": "CylinderGeometry"
            },
            "type": "CylinderGeometry"
          },
          "indices": 70
        }
      ]
    },
    {
      "primitives": [
        {
          "mode": 4,
          "attributes": {
            "POSITION": 71,
            "NORMAL": 72,
            "TEXCOORD_0": 73
          },
          "extras": {
            "parameters": {
              "width": 40,
              "radialSegments": 64,
              "heightSegments": 1,
              "openEnded": false,
              "thetaStart": 0,
              "thetaLength": 360,
              "cornerRadius": 0,
              "cornerSegments": 8,
              "hollow": 0,
              "depth": 40,
              "height": 9.4,
              "radiusTop": 20,
              "radiusBottom": 20,
              "type": "CylinderGeometry"
            },
            "type": "CylinderGeometry"
          },
          "indices": 74
        }
      ]
    },
    {
      "primitives": [
        {
          "mode": 4,
          "attributes": {
            "POSITION": 75,
            "NORMAL": 76,
            "TEXCOORD_0": 77
          },
          "extras": {
            "parameters": {
              "width": 42,
              "widthSegments": 1,
              "heightSegments": 1,
              "depthSegments": 1,
              "cornerRadius": 0,
              "cornerSegments": 8,
              "height": 11,
              "depth": 12,
              "type": "CubeGeometry"
            },
            "type": "CubeGeometry"
          },
          "indices": 78
        }
      ]
    },
    {
      "primitives": [
        {
          "mode": 4,
          "attributes": {
            "POSITION": 79,
            "NORMAL": 80
          },
          "extras": {
            "type": "SubdivGeometry",
            "parameters": {
              "width": 100,
              "height": 30,
              "depth": 100
            }
          },
          "indices": 81
        }
      ]
    }
  ],
  "extensions": {
    "KHR_lights_punctual": {
      "lights": [
        {
          "name": "Directional Light",
          "color": [
            1,
            1,
            1
          ],
          "intensity": 0.7,
          "type": "directional"
        }
      ]
    }
  },
  "cameras": [
    {
      "type": "perspective",
      "perspective": {
        "aspectRatio": 1.8064516129032258,
        "yfov": 0.7853981633974483,
        "zfar": 100000,
        "znear": 70
      }
    }
  ],
  "extensionsUsed": [
    "KHR_lights_punctual"
  ]
}